<svg xmlns="http://www.w3.org/2000/svg" width="16" height="17" fill="#000" xmlns:v="https://vecta.io/nano"><path d="M7.952 4.302c-2.222 0-4.063 1.81-4.063 4.063a4.05 4.05 0 0 0 4.063 4.064c2.254 0 4.063-1.841 4.063-4.064s-1.841-4.063-4.063-4.063zm0 6.667c-1.429 0-2.603-1.175-2.603-2.603s1.175-2.603 2.603-2.603 2.603 1.175 2.603 2.603-1.175 2.603-2.603 2.603zm4.223-5.842a.921.921 0 1 0 0-1.841.921.921 0 1 0 0 1.841zm2.381-3.302c-.825-.857-2-1.302-3.333-1.302h-6.54C1.921.524.079 2.365.079 5.127v6.508c0 1.365.444 2.54 1.333 3.397.857.825 2 1.238 3.302 1.238h6.476c1.365 0 2.508-.444 3.333-1.238.857-.825 1.302-2 1.302-3.365v-6.54c0-1.333-.444-2.476-1.27-3.302zm-.19 9.841c0 .984-.286 1.778-.857 2.317s-1.365.825-2.317.825H4.714c-.952 0-1.746-.286-2.317-.825-.571-.571-.857-1.365-.857-2.349V5.127c0-.952.286-1.746.857-2.317.54-.54 1.365-.825 2.317-.825h6.54c.952 0 1.746.286 2.318.857.54.571.857 1.365.857 2.286v6.54h-.063z"/></svg>