<svg xmlns="http://www.w3.org/2000/svg" width="17" height="14" fill="none" xmlns:v="https://vecta.io/nano"><path d="M16.171 1.937c-.575.255-1.194.428-1.843.505.663-.397 1.171-1.026 1.411-1.775-.62.368-1.306.635-2.038.779C13.116.822 12.282.432 11.359.432A3.21 3.21 0 0 0 8.15 3.641a3.22 3.22 0 0 0 .083.731A9.11 9.11 0 0 1 1.619 1.02c-.276.474-.434 1.025-.434 1.613 0 1.113.566 2.095 1.428 2.671-.526-.017-1.021-.161-1.453-.402v.041A3.21 3.21 0 0 0 3.733 8.09a3.22 3.22 0 0 1-.846.113 3.19 3.19 0 0 1-.604-.058c.409 1.275 1.594 2.203 2.998 2.229-1.098.861-2.482 1.374-3.985 1.374a6.56 6.56 0 0 1-.765-.045 9.08 9.08 0 0 0 4.919 1.442c5.903 0 9.13-4.89 9.13-9.13a9.23 9.23 0 0 0-.009-.415c.627-.452 1.171-1.018 1.601-1.661z" fill="#000"/></svg>